<svg xmlns="http://www.w3.org/2000/svg" xmlns:xlink="http://www.w3.org/1999/xlink" width="1000" zoomAndPan="magnify" viewBox="0 0 750 749.999995" height="1000" preserveAspectRatio="xMidYMid meet" version="1.0"><defs><clipPath id="d9fbea782a"><path d="M 0.28125 1.042969 L 458.097656 1.042969 L 458.097656 276.753906 L 0.28125 276.753906 Z M 0.28125 1.042969 " clip-rule="nonzero"/></clipPath><clipPath id="694d974741"><path d="M 0.28125 32.542969 L 0.28125 245.457031 C 0.28125 253.808594 3.601562 261.820312 9.507812 267.730469 C 15.417969 273.636719 23.429688 276.957031 31.78125 276.957031 L 426.726562 276.957031 C 435.078125 276.957031 443.089844 273.636719 449 267.730469 C 454.90625 261.820312 458.226562 253.808594 458.226562 245.457031 L 458.226562 32.542969 C 458.226562 24.191406 454.90625 16.179688 449 10.269531 C 443.089844 4.363281 435.078125 1.042969 426.726562 1.042969 L 31.78125 1.042969 C 23.429688 1.042969 15.417969 4.363281 9.507812 10.269531 C 3.601562 16.179688 0.28125 24.191406 0.28125 32.542969 Z M 0.28125 32.542969 " clip-rule="nonzero"/></clipPath><clipPath id="e45ccf9988"><path d="M 482.292969 1.042969 L 733.585938 1.042969 L 733.585938 276.753906 L 482.292969 276.753906 Z M 482.292969 1.042969 " clip-rule="nonzero"/></clipPath><clipPath id="e2b79619d6"><path d="M 482.292969 38.542969 L 482.292969 239.457031 C 482.292969 260.164062 499.082031 276.957031 519.792969 276.957031 L 696.21875 276.957031 C 716.929688 276.957031 733.71875 260.164062 733.71875 239.457031 L 733.71875 38.542969 C 733.71875 17.835938 716.929688 1.042969 696.21875 1.042969 L 519.792969 1.042969 C 499.082031 1.042969 482.292969 17.835938 482.292969 38.542969 Z M 482.292969 38.542969 " clip-rule="nonzero"/></clipPath><clipPath id="faaf34c621"><path d="M 482.292969 1.585938 L 679.664062 1.585938 L 679.664062 277 L 482.292969 277 Z M 482.292969 1.585938 " clip-rule="nonzero"/></clipPath><clipPath id="44369e7393"><path d="M 207.464844 1.042969 L 457.738281 1.042969 L 457.738281 276.753906 L 207.464844 276.753906 Z M 207.464844 1.042969 " clip-rule="nonzero"/></clipPath><clipPath id="d8dd057ee2"><rect x="0" width="734" y="0" height="278"/></clipPath></defs><g transform="matrix(1, 0, 0, 1, 8, 236)"><g clip-path="url(#d8dd057ee2)"><g clip-path="url(#d9fbea782a)"><g clip-path="url(#694d974741)"><path fill="#00d800" d="M 293.082031 1.113281 L 206.625 112.203125 L 135.738281 203.332031 L 63.203125 111.5625 L 63.203125 276.785156 L 0.28125 276.785156 L 0.28125 1.113281 L 58.53125 1.113281 L 135.464844 103.046875 L 206.625 7.25 L 211.203125 1.113281 Z M 389.519531 171.460938 C 392.175781 170.269531 394.742188 168.988281 397.398438 167.613281 C 409.027344 161.476562 418.828125 152.320312 426.339844 140.6875 C 434.125 128.597656 438.0625 112.847656 438.0625 93.980469 C 438.0625 65.953125 428.8125 43.148438 410.496094 26.207031 C 392.453125 9.628906 368.546875 1.113281 339.332031 1.113281 L 335.851562 1.113281 L 288.042969 62.472656 L 336.035156 62.472656 C 349.039062 62.472656 358.75 65.496094 365.800781 71.542969 C 372.210938 76.851562 375.140625 84.089844 375.140625 93.980469 C 375.140625 101.765625 373.585938 107.441406 370.472656 110.921875 C 366.441406 115.320312 361.769531 118.339844 356 120.082031 C 348.765625 122.1875 341.621094 123.285156 334.570312 123.285156 L 269.359375 123.285156 L 269.359375 86.5625 L 206.535156 167.339844 L 206.535156 276.875 L 269.359375 276.875 L 269.359375 184.742188 L 325.136719 184.742188 L 383.203125 276.875 L 458.210938 276.875 Z M 389.519531 171.460938 " fill-opacity="1" fill-rule="nonzero"/></g></g><g clip-path="url(#e45ccf9988)"><g clip-path="url(#e2b79619d6)"><path fill="#00d800" d="M 482.4375 276.941406 L 543.121094 276.941406 L 543.121094 204.050781 L 728.199219 1.042969 L 654.953125 1.042969 L 543.152344 121.621094 L 543.152344 1.042969 L 482.4375 1.042969 Z M 595.414062 189.9375 L 660.675781 276.941406 L 733.566406 276.941406 L 633.210938 146.800781 Z M 595.414062 189.9375 " fill-opacity="1" fill-rule="evenodd"/></g></g><g clip-path="url(#faaf34c621)"><path fill="#00d800" d="M 482.4375 276.945312 L 543.003906 276.945312 L 543.003906 204.195312 L 727.714844 1.585938 L 654.617188 1.585938 L 543.03125 121.925781 L 543.03125 1.585938 L 482.4375 1.585938 Z M 595.191406 190.109375 L 660.328125 276.945312 L 733.074219 276.945312 L 632.914062 147.054688 Z M 595.191406 190.109375 " fill-opacity="1" fill-rule="evenodd"/></g><g clip-path="url(#44369e7393)"><path fill="#00d800" d="M 293.082031 1.113281 L 206.625 112.203125 L 135.738281 203.332031 L 63.203125 111.5625 L 63.203125 276.785156 L 0.28125 276.785156 L 0.28125 1.113281 L 58.53125 1.113281 L 135.464844 103.046875 L 206.625 7.25 L 211.203125 1.113281 Z M 389.519531 171.460938 C 392.175781 170.269531 394.742188 168.988281 397.398438 167.613281 C 409.027344 161.476562 418.828125 152.320312 426.339844 140.6875 C 434.125 128.597656 438.0625 112.847656 438.0625 93.980469 C 438.0625 65.953125 428.8125 43.148438 410.496094 26.207031 C 392.453125 9.628906 368.546875 1.113281 339.332031 1.113281 L 335.851562 1.113281 L 288.042969 62.472656 L 336.035156 62.472656 C 349.039062 62.472656 358.75 65.496094 365.800781 71.542969 C 372.210938 76.851562 375.140625 84.089844 375.140625 93.980469 C 375.140625 101.765625 373.585938 107.441406 370.472656 110.921875 C 366.441406 115.320312 361.769531 118.339844 356 120.082031 C 348.765625 122.1875 341.621094 123.285156 334.570312 123.285156 L 269.359375 123.285156 L 269.359375 86.5625 L 206.535156 167.339844 L 206.535156 276.875 L 269.359375 276.875 L 269.359375 184.742188 L 325.136719 184.742188 L 383.203125 276.875 L 458.210938 276.875 Z M 389.519531 171.460938 " fill-opacity="1" fill-rule="nonzero"/></g></g></g></svg>